<svg width="392" height="168" viewBox="0 0 392 168" fill="none" xmlns="http://www.w3.org/2000/svg">
<path d="M95.58 94.88H0C0 94.88 9.48 69 24.06 69C38.64 69 43.22 86.86 43.22 86.86C43.22 86.86 53.06 77.15 61.14 77.15C69.22 77.15 76.25 89.98 76.25 89.98C76.25 89.98 87.66 83.08 95.58 94.88Z" fill="#EBEBEB"/>
<path d="M402.67 28.46H358C358 28.46 368 14 375.85 14C383.7 14 386.03 23.64 386.03 23.64C386.03 23.64 391.58 19.14 396.72 19.95C401.86 20.76 402.67 28.46 402.67 28.46Z" fill="#EBEBEB"/>
<path d="M166.76 16.5639H108C108 16.5639 118.09 -2.71609 129 -2.99609C139.91 -3.27609 145.71 11.5939 145.71 11.5939C145.71 11.5939 162.79 -2.0761 166.76 16.5639Z" fill="#EBEBEB"/>
<g opacity="0.5">
<path d="M335.664 41.6855H230.376V159.142H335.664V41.6855Z" fill="#DBDBDB"/>
<path d="M338.093 34.5635H227.947V41.6959H338.093V34.5635Z" fill="#BDBDBD"/>
<path d="M308.799 111.183H257.26V118.315H308.799V111.183Z" fill="#BDBDBD"/>
<path d="M261.451 58.7021H243.574V86.3578H261.451V58.7021Z" fill="#C7C7C7"/>
<path d="M259.609 60.7285H245.416V84.3411H259.609V60.7285Z" fill="white"/>
<path d="M264.019 86.3682H241.016V90.3417H264.019V86.3682Z" fill="#BDBDBD"/>
<g opacity="0.5">
<path opacity="0.5" d="M259.609 60.7393V63.6499L245.416 77.8254V72.4313L257.141 60.7393H259.609Z" fill="#BDBDBD"/>
<path opacity="0.5" d="M259.609 78.2324V80.9344L256.195 84.3417H253.498L259.609 78.2324Z" fill="#BDBDBD"/>
<path opacity="0.5" d="M250.193 60.7393L245.416 65.5075V62.8154L247.486 60.7393H250.193Z" fill="#BDBDBD"/>
<path opacity="0.5" d="M259.609 74.0107V74.875L250.124 84.3419H249.258L259.609 74.0107Z" fill="#BDBDBD"/>
</g>
<path d="M261.451 74.6162H243.574V76.6427H261.451V74.6162Z" fill="#C7C7C7"/>
<path d="M291.958 58.7021H274.082V86.3578H291.958V58.7021Z" fill="#C7C7C7"/>
<path d="M290.117 60.7285H275.923V84.3411H290.117V60.7285Z" fill="white"/>
<path d="M294.526 86.3682H271.524V90.3417H294.526V86.3682Z" fill="#BDBDBD"/>
<g opacity="0.5">
<path opacity="0.5" d="M290.127 60.7393V63.6499L275.923 77.8254V72.4313L287.648 60.7393H290.127Z" fill="#BDBDBD"/>
<path opacity="0.5" d="M290.127 78.2324V80.9344L286.703 84.3417H284.005L290.127 78.2324Z" fill="#BDBDBD"/>
<path opacity="0.5" d="M280.701 60.7393L275.923 65.5075V62.8154L277.993 60.7393H280.701Z" fill="#BDBDBD"/>
<path opacity="0.5" d="M290.127 74.0107V74.875L280.641 84.3419H279.765L290.127 74.0107Z" fill="#BDBDBD"/>
</g>
<path d="M291.958 74.6162H274.082V76.6427H291.958V74.6162Z" fill="#C7C7C7"/>
<path d="M322.466 58.7021H304.589V86.3578H322.466V58.7021Z" fill="#C7C7C7"/>
<path d="M320.634 60.7285H306.44V84.3411H320.634V60.7285Z" fill="white"/>
<path d="M325.034 86.3682H302.031V90.3417H325.034V86.3682Z" fill="#BDBDBD"/>
<g opacity="0.5">
<path opacity="0.5" d="M320.634 60.7393V63.6499L306.43 77.8254V72.4313L318.156 60.7393H320.634Z" fill="#BDBDBD"/>
<path opacity="0.5" d="M320.634 78.2324V80.9344L317.22 84.3417H314.513L320.634 78.2324Z" fill="#BDBDBD"/>
<path opacity="0.5" d="M311.218 60.7393L306.43 65.5075V62.8154L308.511 60.7393H311.218Z" fill="#BDBDBD"/>
<path opacity="0.5" d="M320.634 74.0107V74.875L311.148 84.3419H310.282L320.634 74.0107Z" fill="#BDBDBD"/>
</g>
<path d="M322.466 74.6162H304.589V76.6427H322.466V74.6162Z" fill="#C7C7C7"/>
<path d="M304.917 118.315H261.132V159.143H304.917V118.315Z" fill="#C7C7C7"/>
<path d="M301.971 121.335H264.078V159.153H301.971V121.335Z" fill="white"/>
<g opacity="0.5">
<path opacity="0.5" d="M301.971 137.109V144.142L286.932 159.142H279.895L301.971 137.109Z" fill="#BDBDBD"/>
<path opacity="0.5" d="M273.972 121.335L264.078 131.209V124.176L266.935 121.335H273.972Z" fill="#BDBDBD"/>
<path opacity="0.5" d="M295.113 121.335L264.078 152.308V148.802L291.6 121.335H295.113Z" fill="#BDBDBD"/>
<path opacity="0.5" d="M301.971 147.778V151.295L294.098 159.143H290.584L301.971 147.778Z" fill="#BDBDBD"/>
<path opacity="0.5" d="M301.971 124.842V125.487L268.249 159.143H267.592L301.971 124.842Z" fill="#BDBDBD"/>
<path opacity="0.5" d="M278.073 121.335L264.078 135.292V134.646L277.416 121.335H278.073Z" fill="#BDBDBD"/>
<path opacity="0.5" d="M290.007 121.335L264.078 147.203V146.547L289.35 121.335H290.007Z" fill="#BDBDBD"/>
</g>
<path d="M284.244 121.335H281.806V159.153H284.244V121.335Z" fill="#C7C7C7"/>
<path d="M230.376 65.3477H141.133V159.142H230.376V65.3477Z" fill="#DBDBDB"/>
<path d="M222.393 65.3477H230.376V159.142H226.843L222.393 65.3477Z" fill="#C7C7C7"/>
<path d="M166.903 78.2324H151.266V102.411H166.903V78.2324Z" fill="#C7C7C7"/>
<path d="M165.29 80.0107H152.878V100.653H165.29V80.0107Z" fill="white"/>
<path d="M169.132 102.421H149.026V105.898H169.132V102.421Z" fill="#BDBDBD"/>
<g opacity="0.5">
<path opacity="0.5" d="M165.29 80.0107V82.5637L152.878 94.9511V90.2425L163.12 80.0107H165.29Z" fill="#BDBDBD"/>
<path opacity="0.5" d="M165.29 95.3086V97.6629L162.304 100.653H159.935L165.29 95.3086Z" fill="#BDBDBD"/>
<path opacity="0.5" d="M157.058 80.0107L152.878 84.1829V81.8187L154.689 80.0107H157.058Z" fill="#BDBDBD"/>
<path opacity="0.5" d="M165.29 91.6133V92.3782L156.999 100.653H156.232L165.29 91.6133Z" fill="#BDBDBD"/>
</g>
<path d="M166.903 92.1494H151.266V93.9176H166.903V92.1494Z" fill="#C7C7C7"/>
<path d="M193.578 78.2324H177.941V102.411H193.578V78.2324Z" fill="#C7C7C7"/>
<path d="M191.965 80.0107H179.553V100.653H191.965V80.0107Z" fill="white"/>
<path d="M195.807 102.421H175.701V105.898H195.807V102.421Z" fill="#BDBDBD"/>
<g opacity="0.5">
<path opacity="0.5" d="M191.965 80.0107V82.5637L179.543 94.9511V90.2425L189.796 80.0107H191.965Z" fill="#BDBDBD"/>
<path opacity="0.5" d="M191.965 95.3086V97.6629L188.969 100.653H186.61L191.965 95.3086Z" fill="#BDBDBD"/>
<path opacity="0.5" d="M183.724 80.0107L179.543 84.1829V81.8187L181.365 80.0107H183.724Z" fill="#BDBDBD"/>
<path opacity="0.5" d="M191.965 91.6133V92.3782L183.674 100.653H182.908L191.965 91.6133Z" fill="#BDBDBD"/>
</g>
<path d="M193.578 92.1494H177.941V93.9176H193.578V92.1494Z" fill="#C7C7C7"/>
<path d="M220.253 78.2324H204.616V102.411H220.253V78.2324Z" fill="#C7C7C7"/>
<path d="M218.641 80.0107H206.229V100.653H218.641V80.0107Z" fill="white"/>
<path d="M222.483 102.421H202.377V105.898H222.483V102.421Z" fill="#BDBDBD"/>
<g opacity="0.5">
<path opacity="0.5" d="M218.641 80.0107V82.5637L206.229 94.9511V90.2425L216.471 80.0107H218.641Z" fill="#BDBDBD"/>
<path opacity="0.5" d="M218.641 95.3086V97.6629L215.655 100.653H213.286L218.641 95.3086Z" fill="#BDBDBD"/>
<path opacity="0.5" d="M210.399 80.0107L206.229 84.1829V81.8187L208.04 80.0107H210.399Z" fill="#BDBDBD"/>
<path opacity="0.5" d="M218.641 91.6133V92.3782L210.349 100.653H209.583L218.641 91.6133Z" fill="#BDBDBD"/>
</g>
<path d="M220.253 92.1494H204.616V93.9176H220.253V92.1494Z" fill="#C7C7C7"/>
<path d="M166.903 114.749H151.266V138.928H166.903V114.749Z" fill="#C7C7C7"/>
<path d="M165.29 116.527H152.878V137.17H165.29V116.527Z" fill="white"/>
<path d="M169.132 138.938H149.026V142.414H169.132V138.938Z" fill="#BDBDBD"/>
<g opacity="0.5">
<path opacity="0.5" d="M165.29 116.527V119.08L152.878 131.468V126.759L163.12 116.527H165.29Z" fill="#BDBDBD"/>
<path opacity="0.5" d="M165.29 131.825V134.179L162.304 137.17H159.935L165.29 131.825Z" fill="#BDBDBD"/>
<path opacity="0.5" d="M157.058 116.527L152.878 120.7V118.335L154.689 116.527H157.058Z" fill="#BDBDBD"/>
<path opacity="0.5" d="M165.29 128.13V128.885L156.999 137.17H156.232L165.29 128.13Z" fill="#BDBDBD"/>
</g>
<path d="M166.903 128.666H151.266V130.434H166.903V128.666Z" fill="#C7C7C7"/>
<path d="M193.578 114.749H177.941V138.928H193.578V114.749Z" fill="#C7C7C7"/>
<path d="M191.965 116.527H179.553V137.17H191.965V116.527Z" fill="white"/>
<path d="M195.807 138.938H175.701V142.414H195.807V138.938Z" fill="#BDBDBD"/>
<g opacity="0.5">
<path opacity="0.5" d="M191.965 116.527V119.08L179.543 131.468V126.759L189.796 116.527H191.965Z" fill="#BDBDBD"/>
<path opacity="0.5" d="M191.965 131.825V134.179L188.969 137.17H186.61L191.965 131.825Z" fill="#BDBDBD"/>
<path opacity="0.5" d="M183.724 116.527L179.543 120.7V118.335L181.365 116.527H183.724Z" fill="#BDBDBD"/>
<path opacity="0.5" d="M191.965 128.13V128.885L183.674 137.17H182.908L191.965 128.13Z" fill="#BDBDBD"/>
</g>
<path d="M193.578 128.666H177.941V130.434H193.578V128.666Z" fill="#C7C7C7"/>
<path d="M220.253 114.749H204.616V138.928H220.253V114.749Z" fill="#C7C7C7"/>
<path d="M218.641 116.527H206.229V137.17H218.641V116.527Z" fill="white"/>
<path d="M222.483 138.938H202.377V142.414H222.483V138.938Z" fill="#BDBDBD"/>
<g opacity="0.5">
<path opacity="0.5" d="M218.641 116.527V119.08L206.229 131.468V126.759L216.471 116.527H218.641Z" fill="#BDBDBD"/>
<path opacity="0.5" d="M218.641 131.825V134.179L215.655 137.17H213.286L218.641 131.825Z" fill="#BDBDBD"/>
<path opacity="0.5" d="M210.399 116.527L206.229 120.7V118.335L208.04 116.527H210.399Z" fill="#BDBDBD"/>
<path opacity="0.5" d="M218.641 128.13V128.885L210.349 137.17H209.583L218.641 128.13Z" fill="#BDBDBD"/>
</g>
<path d="M220.253 128.666H204.616V130.434H220.253V128.666Z" fill="#C7C7C7"/>
<path d="M230.376 58.2158H138.087V65.3483H230.376V58.2158Z" fill="#BDBDBD"/>
<path d="M335.624 159.143H424.867V65.3479L335.624 65.3479V159.143Z" fill="#DBDBDB"/>
<path d="M343.607 65.3477H335.624V159.142H339.158L343.607 65.3477Z" fill="#C7C7C7"/>
<path d="M372.432 102.421H388.069V78.2421H372.432V102.421Z" fill="#C7C7C7"/>
<path d="M374.045 100.643H386.457V80.0002H374.045V100.643Z" fill="white"/>
<path d="M370.193 105.897H390.299V102.421H370.193V105.897Z" fill="#BDBDBD"/>
<g opacity="0.5">
<path opacity="0.5" d="M374.035 80.0107V82.5637L386.457 94.9511V90.2425L376.205 80.0107H374.035Z" fill="#BDBDBD"/>
<path opacity="0.5" d="M374.035 95.3086V97.6629L377.021 100.653H379.39L374.035 95.3086Z" fill="#BDBDBD"/>
<path opacity="0.5" d="M382.276 80.0107L386.457 84.1829V81.8187L384.635 80.0107H382.276Z" fill="#BDBDBD"/>
<path opacity="0.5" d="M374.035 91.6133V92.3782L382.326 100.653H383.092L374.035 91.6133Z" fill="#BDBDBD"/>
</g>
<path d="M372.432 93.918H388.069V92.1498H372.432V93.918Z" fill="#C7C7C7"/>
<path d="M345.747 102.421H361.384V78.2421H345.747V102.421Z" fill="#C7C7C7"/>
<path d="M347.369 100.643H359.781V80.0002H347.369V100.643Z" fill="white"/>
<path d="M343.517 105.897H363.623V102.421H343.517V105.897Z" fill="#BDBDBD"/>
<g opacity="0.5">
<path opacity="0.5" d="M347.359 80.0107V82.5637L359.771 94.9511V90.2425L349.529 80.0107H347.359Z" fill="#BDBDBD"/>
<path opacity="0.5" d="M347.359 95.3086V97.6629L350.355 100.653H352.714L347.359 95.3086Z" fill="#BDBDBD"/>
<path opacity="0.5" d="M355.601 80.0107L359.771 84.1829V81.8187L357.96 80.0107H355.601Z" fill="#BDBDBD"/>
<path opacity="0.5" d="M347.359 91.6133V92.3782L355.651 100.653H356.417L347.359 91.6133Z" fill="#BDBDBD"/>
</g>
<path d="M345.747 93.918H361.384V92.1498H345.747V93.918Z" fill="#C7C7C7"/>
<path d="M372.432 138.938H388.069V114.759H372.432V138.938Z" fill="#C7C7C7"/>
<path d="M374.045 137.159H386.457V116.517H374.045V137.159Z" fill="white"/>
<path d="M370.193 142.414H390.299V138.937H370.193V142.414Z" fill="#BDBDBD"/>
<g opacity="0.5">
<path opacity="0.5" d="M374.035 116.527V119.08L386.457 131.468V126.759L376.205 116.527H374.035Z" fill="#BDBDBD"/>
<path opacity="0.5" d="M374.035 131.825V134.179L377.021 137.17H379.39L374.035 131.825Z" fill="#BDBDBD"/>
<path opacity="0.5" d="M382.276 116.527L386.457 120.7V118.335L384.635 116.527H382.276Z" fill="#BDBDBD"/>
<path opacity="0.5" d="M374.035 128.13V128.885L382.326 137.17H383.092L374.035 128.13Z" fill="#BDBDBD"/>
</g>
<path d="M372.432 130.435H388.069V128.666H372.432V130.435Z" fill="#C7C7C7"/>
<path d="M345.747 138.938H361.384V114.759H345.747V138.938Z" fill="#C7C7C7"/>
<path d="M347.369 137.159H359.781V116.517H347.369V137.159Z" fill="white"/>
<path d="M343.517 142.414H363.623V138.937H343.517V142.414Z" fill="#BDBDBD"/>
<g opacity="0.5">
<path opacity="0.5" d="M347.359 116.527V119.08L359.771 131.468V126.759L349.529 116.527H347.359Z" fill="#BDBDBD"/>
<path opacity="0.5" d="M347.359 131.825V134.179L350.355 137.17H352.714L347.359 131.825Z" fill="#BDBDBD"/>
<path opacity="0.5" d="M355.601 116.527L359.771 120.7V118.335L357.96 116.527H355.601Z" fill="#BDBDBD"/>
<path opacity="0.5" d="M347.359 128.13V128.885L355.651 137.17H356.417L347.359 128.13Z" fill="#BDBDBD"/>
</g>
<path d="M345.747 130.435H361.384V128.666H345.747V130.435Z" fill="#C7C7C7"/>
<path d="M335.614 65.3477L427.903 65.3477V58.2152L335.614 58.2152V65.3477Z" fill="#BDBDBD"/>
<path d="M319.261 26.1196V34.5534H246.789V26.1196H259.619C259.619 26.1196 265.88 16.5137 283.02 16.5137C300.16 16.5137 306.441 26.1196 306.441 26.1196H319.261Z" fill="#DBDBDB"/>
<path d="M68.5625 166.613L122.172 166.374L175.781 166.285L283 166.116L390.219 166.285L443.829 166.374L497.438 166.613L443.829 166.851L390.219 166.941L283 167.11L175.781 166.941L122.172 166.851L68.5625 166.613Z" fill="#263238"/>
<path d="M490.66 159.162H75.3308V166.384H490.66V159.162Z" fill="#C7C7C7"/>
<path d="M104.455 159.162C105.105 161.526 105.105 164.02 104.455 166.384C104.104 165.211 103.936 163.992 103.957 162.768C103.941 161.548 104.109 160.332 104.455 159.162Z" fill="#263238"/>
<path d="M136.913 159.162C137.259 160.332 137.427 161.548 137.411 162.768C137.432 163.992 137.264 165.211 136.913 166.384C136.263 164.02 136.263 161.526 136.913 159.162Z" fill="#263238"/>
<path d="M169.381 159.162C170.031 161.526 170.031 164.02 169.381 166.384C169.03 165.211 168.863 163.992 168.884 162.768C168.868 161.548 169.036 160.332 169.381 159.162Z" fill="#263238"/>
<path d="M201.84 159.162C202.185 160.332 202.353 161.548 202.337 162.768C202.358 163.992 202.191 165.211 201.84 166.384C201.19 164.02 201.19 161.526 201.84 159.162Z" fill="#263238"/>
<path d="M234.308 159.162C234.958 161.526 234.958 164.02 234.308 166.384C233.957 165.211 233.789 163.992 233.81 162.768C233.795 161.548 233.962 160.332 234.308 159.162Z" fill="#263238"/>
<path d="M266.766 159.162C267.112 160.332 267.28 161.548 267.264 162.768C267.285 163.992 267.117 165.211 266.766 166.384C266.116 164.02 266.116 161.526 266.766 159.162Z" fill="#263238"/>
<path d="M299.235 159.162C299.885 161.526 299.885 164.02 299.235 166.384C298.884 165.211 298.716 163.992 298.737 162.768C298.721 161.548 298.889 160.332 299.235 159.162Z" fill="#263238"/>
<path d="M331.693 159.162C332.039 160.332 332.206 161.548 332.191 162.768C332.212 163.992 332.044 165.211 331.693 166.384C331.043 164.02 331.043 161.526 331.693 159.162Z" fill="#263238"/>
<path d="M364.161 159.162C364.812 161.526 364.812 164.02 364.161 166.384C363.81 165.211 363.643 163.992 363.664 162.768C363.648 161.548 363.816 160.332 364.161 159.162Z" fill="#263238"/>
<path d="M122.171 159.162C122.171 159.162 121.335 155.259 119.663 154.662C117.99 154.066 116.965 155.805 116.965 155.805C116.965 155.805 116.577 152.08 114.198 150.967C111.819 149.855 110.048 152.1 110.048 152.1C110.048 152.1 108.226 147.371 104.971 147.371C101.717 147.371 100.084 154.325 100.084 154.325C100.084 154.325 98.1631 152.259 96.1924 153.431C94.2216 154.603 94.2017 159.162 94.2017 159.162H122.171Z" fill="#37474F"/>
<path d="M399.714 159.163C399.714 159.163 398.878 155.259 397.206 154.663C395.534 154.067 394.518 155.805 394.518 155.805C394.518 155.805 394.12 152.08 391.751 150.968C389.382 149.855 387.601 152.13 387.601 152.13C387.601 152.13 385.779 147.401 382.524 147.401C379.27 147.401 377.627 154.355 377.627 154.355C377.627 154.355 375.716 152.289 373.745 153.461C371.775 154.633 371.755 159.193 371.755 159.193L399.714 159.163Z" fill="#455A64"/>
<path d="M196.105 159.163H166.693C166.693 159.163 167.688 155.02 169.609 154.732C170.196 154.677 170.785 154.802 171.298 155.092C171.81 155.381 172.222 155.821 172.476 156.351C172.476 156.351 172.386 150.58 176.029 149.596C179.672 148.613 182.718 153.719 182.718 153.719C182.718 153.719 185.007 150.808 188.113 150.997C191.218 151.186 192.025 155.964 192.025 155.964C192.025 155.964 194.851 154.315 196.105 159.163Z" fill="#37474F"/>
<path d="M96.0331 159.163H80.5554C80.5554 159.163 80.5554 156.858 82.1082 156.252C82.5207 156.071 82.981 156.03 83.4193 156.134C83.8576 156.238 84.2499 156.482 84.5368 156.828C84.5368 156.828 85.1539 152.606 87.9907 152.606C90.8274 152.606 92.191 156.252 92.191 156.252C92.4317 155.904 92.7691 155.634 93.1618 155.475C93.5545 155.316 93.9852 155.276 94.4007 155.358C95.9734 155.557 96.0331 159.163 96.0331 159.163Z" fill="#455A64"/>
<path d="M208.249 159.163H192.771C192.771 159.163 192.771 156.858 194.324 156.252C194.736 156.071 195.197 156.03 195.635 156.134C196.073 156.238 196.466 156.482 196.752 156.828C196.752 156.828 197.379 152.606 200.216 152.606C203.053 152.606 204.407 156.252 204.407 156.252C204.647 155.904 204.985 155.634 205.377 155.475C205.77 155.316 206.201 155.276 206.616 155.358C208.189 155.557 208.249 159.163 208.249 159.163Z" fill="#455A64"/>
</g>
</svg>
